<?xml version="1.0" standalone="no"?>
<!DOCTYPE svg PUBLIC "-//W3C//DTD SVG 20010904//EN"
 "http://www.w3.org/TR/2001/REC-SVG-20010904/DTD/svg10.dtd">
<svg version="1.0" xmlns="http://www.w3.org/2000/svg"
 width="590.000000pt" height="590.000000pt" viewBox="0 0 590.000000 590.000000"
 preserveAspectRatio="xMidYMid meet">
<metadata>
Created by potrace 1.11, written by Peter Selinger 2001-2013
</metadata>
<g transform="translate(0.000000,590.000000) scale(0.100000,-0.100000)"
fill="#000000" stroke="none">
<path d="M2329 5646 c-2 -2 -42 -7 -89 -12 -47 -4 -94 -8 -105 -9 -11 -1 -36
-5 -55 -9 -19 -3 -51 -8 -70 -11 -19 -2 -35 -4 -35 -5 0 -1 -13 -4 -30 -6 -51
-8 -177 -35 -234 -51 -29 -8 -59 -16 -65 -17 -6 -2 -31 -9 -56 -16 -25 -8 -48
-14 -52 -16 -5 -1 -9 -2 -10 -4 -2 -1 -11 -3 -21 -5 -11 -2 -21 -6 -23 -8 -7
-6 -6 -249 1 -255 3 -3 500 -6 1105 -6 l1100 -1 0 132 0 132 -57 17 c-32 10
-63 18 -69 20 -6 1 -36 9 -65 17 -91 26 -266 62 -344 73 -22 2 -51 7 -65 10
-14 3 -45 8 -70 10 -25 2 -63 7 -85 10 -45 7 -600 16 -606 10z"/>
<path d="M1479 5028 c-2 -24 -3 -57 -1 -74 l3 -32 1105 0 1104 0 1 24 c1 31 1
78 0 104 -1 20 -8 20 -1105 20 l-1104 0 -3 -42z"/>
<path d="M1480 4745 c-1 -41 -1 -1461 0 -1505 l0 -36 177 1 176 0 3 25 c2 14
5 50 7 80 9 127 96 234 217 269 8 2 238 5 510 6 533 2 558 0 629 -50 93 -64
129 -140 134 -285 l2 -45 178 0 177 -1 0 166 c3 825 0 1393 -5 1398 -3 3 -501
6 -1105 7 l-1100 0 0 -30z m1206 -160 c107 -45 177 -146 177 -260 1 -95 -52
-184 -140 -239 -24 -14 -43 -23 -43 -20 0 4 -6 2 -12 -3 -30 -23 -208 -7 -208
18 0 5 -6 9 -14 9 -23 0 -91 74 -115 126 -44 92 -26 209 43 292 32 37 102 81
143 88 15 3 29 7 31 8 8 9 104 -5 138 -19z"/>
<path d="M2525 3490 c-1 -3 8 -48 20 -100 41 -171 85 -365 89 -390 3 -14 5
-25 6 -25 3 0 30 -118 33 -145 2 -14 15 -79 30 -145 32 -147 55 -267 62 -320
2 -22 7 -50 9 -61 12 -58 17 -107 22 -199 6 -116 6 -103 0 -180 -9 -108 -26
-208 -51 -298 -12 -43 -79 -212 -89 -227 -6 -8 -20 -32 -30 -52 -11 -21 -25
-39 -33 -39 -16 -2 -23 -3 -48 -12 -11 -3 -31 -9 -45 -11 -62 -13 -116 -28
-122 -34 -4 -4 34 -169 83 -367 49 -197 92 -368 94 -380 2 -11 4 -20 5 -20 1
0 4 -11 6 -24 2 -14 6 -27 9 -29 2 -3 44 5 92 18 48 12 96 23 106 25 10 2 27
7 36 10 11 3 28 -4 45 -20 35 -32 130 -97 181 -122 129 -65 334 -101 450 -79
11 2 40 7 65 11 199 30 410 173 524 355 36 56 67 113 71 130 7 30 19 52 33 59
14 8 142 41 216 56 27 6 27 6 11 70 -9 32 -17 68 -20 79 -2 12 -4 21 -6 21 -1
0 -3 9 -4 20 -4 26 -125 515 -132 535 -8 21 -8 20 -17 68 -4 23 -11 42 -14 42
-4 0 -58 -14 -120 -30 l-114 -29 -71 47 c-63 41 -236 202 -292 272 -68 84
-161 248 -208 365 -41 103 -141 408 -152 465 -2 11 -6 24 -9 28 -3 5 -8 24
-11 42 -3 18 -9 38 -13 44 -3 6 -7 16 -8 22 -1 7 -19 72 -39 145 -20 74 -38
140 -40 149 -2 8 -11 42 -20 75 -9 33 -21 76 -25 95 -5 19 -12 48 -17 65 l-9
29 -268 1 c-147 0 -269 -2 -271 -5z m999 -1925 c232 -60 391 -271 385 -515 -3
-134 -49 -240 -148 -340 -198 -201 -502 -211 -711 -23 -181 163 -222 412 -104
632 76 139 202 227 368 255 80 14 127 12 210 -9z"/>
</g>
</svg>
